<svg width="183" height="21" viewBox="0 0 183 21" fill="none" xmlns="http://www.w3.org/2000/svg">
<path d="M2.39969 4.58592C2.39969 2.82604 3.37065 1.15719 5.76773 1.15719C8.74131 1.15719 9.92467 3.82735 10.1067 5.43551C10.1674 5.61757 10.4708 5.58723 10.4708 5.43551L10.2888 1.9461C10.2888 1.7337 10.1067 1.55165 9.8033 1.43028C8.61994 0.914453 7.37589 0.702053 6.25321 0.702053C3.46168 0.702053 0.609471 2.24953 0.609471 5.43551C0.609471 8.25738 2.73346 9.53177 4.91813 10.8365C7.1028 12.1716 9.31782 13.4763 9.31782 16.3892C9.31782 19.029 7.49726 19.8786 5.70704 19.8786C2.49072 19.8786 0.94324 16.9657 0.427415 14.5383C0.366729 14.3866 0.0329597 14.4169 0.0633025 14.599L0.457757 18.7256C0.4881 19.029 0.518443 19.1807 0.730841 19.3021C2.1266 20.0303 3.55271 20.3641 5.00916 20.3641C9.04474 20.3641 11.2598 18.0581 11.2598 15.1755C11.2598 12.2626 8.92337 10.9579 6.67801 9.59246C4.52368 8.31807 2.39969 7.10436 2.39969 4.58592ZM34.0838 19.6359C32.8095 19.6359 32.0509 18.8773 30.6248 15.8431L23.4639 0.76274C23.4336 0.641369 23.0998 0.671711 23.0695 0.76274L16.6672 15.8734C15.3928 18.8773 14.5735 19.6359 12.935 19.6359C12.7529 19.6359 12.7529 20 12.935 20C14.1791 20 14.8162 19.8786 16.2727 19.8786C17.8505 19.8786 18.6394 20 19.8531 20C20.0352 20 20.0352 19.6359 19.8531 19.6359C17.183 19.6359 16.2424 18.6346 17.3043 16.1465L19.9138 9.95657H25.6182L29.138 17.3905C29.9572 19.1504 29.5324 19.6359 27.3781 19.6359C27.1961 19.6359 27.1961 20 27.3781 20C28.5008 20 29.32 19.8786 30.5944 19.8786C31.6868 19.8786 32.9612 20 34.0838 20C34.2659 20 34.2659 19.6359 34.0838 19.6359ZM20.1869 9.31938L22.6143 3.58461L25.3148 9.31938H20.1869ZM55.571 1.03582C54.7821 1.03582 53.7808 1.12685 52.8098 1.12685C51.7781 1.12685 50.9589 1.03582 50.1396 1.03582C50.0486 1.03582 50.0486 1.39993 50.1396 1.39993C51.8085 1.39993 52.4457 2.27987 52.4457 4.34318V16.9354L40.7334 2.61364C39.8231 1.46062 39.8535 1.03582 39.3376 1.03582C39.0039 1.03582 38.3363 1.09651 37.5778 1.09651C36.9406 1.09651 36.1517 1.03582 35.4538 1.03582C35.3324 1.03582 35.3324 1.39993 35.4538 1.39993C36.2123 1.39993 36.9406 1.64268 37.8508 2.49227V16.6926C37.8508 18.7863 37.1833 19.6359 35.4538 19.6359C35.3324 19.6359 35.3324 20 35.4538 20C36.273 20 37.244 19.9393 38.2453 19.9393C39.277 19.9393 40.1265 20 40.9155 20C41.0368 20 41.0368 19.6359 40.9155 19.6359C39.2466 19.6359 38.5791 18.7863 38.5791 16.6926V3.2205C38.6701 3.34187 38.7308 3.4329 38.8218 3.52392L52.8098 20.4248C52.8705 20.4855 53.1436 20.4551 53.1436 20.3338V4.34318C53.1436 2.27987 53.8718 1.39993 55.571 1.39993C55.6923 1.39993 55.6923 1.03582 55.571 1.03582ZM60.6553 4.58592C60.6553 2.82604 61.6262 1.15719 64.0233 1.15719C66.9969 1.15719 68.1803 3.82735 68.3623 5.43551C68.423 5.61757 68.7264 5.58723 68.7264 5.43551L68.5444 1.9461C68.5444 1.7337 68.3623 1.55165 68.0589 1.43028C66.8755 0.914453 65.6315 0.702053 64.5088 0.702053C61.7173 0.702053 58.865 2.24953 58.865 5.43551C58.865 8.25738 60.989 9.53177 63.1737 10.8365C65.3584 12.1716 67.5734 13.4763 67.5734 16.3892C67.5734 19.029 65.7528 19.8786 63.9626 19.8786C60.7463 19.8786 59.1988 16.9657 58.683 14.5383C58.6223 14.3866 58.2885 14.4169 58.3189 14.599L58.7133 18.7256C58.7437 19.029 58.774 19.1807 58.9864 19.3021C60.3822 20.0303 61.8083 20.3641 63.2647 20.3641C67.3003 20.3641 69.5153 18.0581 69.5153 15.1755C69.5153 12.2626 67.1789 10.9579 64.9336 9.59246C62.7793 8.31807 60.6553 7.10436 60.6553 4.58592ZM99.4207 19.6359C97.9339 19.3325 95.6278 18.1794 93.1397 16.3589C94.2017 14.7507 94.8389 12.9605 95.2334 11.5344C95.5671 10.3207 95.8099 9.74417 97.9339 9.74417C98.0856 9.74417 98.0856 9.38006 97.9339 9.38006L91.5922 9.4104C91.4405 9.4104 91.4709 9.77452 91.5922 9.77452C93.4431 9.77452 93.7466 10.6545 93.7466 11.9592C93.7466 13.4156 93.3825 14.8114 92.7149 16.0251C90.1358 14.0832 87.7387 11.7468 86.2216 9.28903C88.6187 7.65053 91.2281 6.16374 91.2281 3.40255C91.2281 1.03582 89.2862 0.398627 87.678 0.398627C84.6438 0.398627 82.6715 2.5833 82.6715 5.22311C82.6715 6.25476 82.9446 7.31676 83.5211 8.53047C83.7638 9.01595 84.0673 9.53177 84.401 10.0476C82.277 11.5951 80.2441 13.2336 80.2441 15.8127C80.2441 18.1188 81.9433 20.3641 85.8575 20.3641C88.5883 20.3641 90.5606 19.3021 91.9867 17.8457C94.2321 19.5752 95.4458 20 96.1436 20H99.4207C99.542 20 99.6027 19.6662 99.4207 19.6359ZM84.401 3.91838C84.401 1.91576 85.281 1.03582 86.7678 1.03582C88.3759 1.03582 89.4076 2.06747 89.4076 3.88804C89.4076 6.04237 87.8298 7.52916 85.9788 8.89458C84.9775 7.25607 84.401 5.55688 84.401 3.91838ZM87.2229 19.4538C84.2797 19.4538 82.1557 17.3602 82.1557 14.7811C82.1557 12.8998 83.248 11.5647 84.6741 10.4117C86.2823 12.7784 88.6793 15.2362 91.0461 17.0871L91.5922 17.5422C90.4696 18.7256 88.9828 19.4538 87.2229 19.4538ZM110.94 4.58592C110.94 2.82604 111.911 1.15719 114.308 1.15719C117.282 1.15719 118.465 3.82735 118.647 5.43551C118.708 5.61757 119.011 5.58723 119.011 5.43551L118.829 1.9461C118.829 1.7337 118.647 1.55165 118.344 1.43028C117.16 0.914453 115.916 0.702053 114.793 0.702053C112.002 0.702053 109.15 2.24953 109.15 5.43551C109.15 8.25738 111.274 9.53177 113.458 10.8365C115.643 12.1716 117.858 13.4763 117.858 16.3892C117.858 19.029 116.038 19.8786 114.247 19.8786C111.031 19.8786 109.484 16.9657 108.968 14.5383C108.907 14.3866 108.573 14.4169 108.604 14.599L108.998 18.7256C109.028 19.029 109.059 19.1807 109.271 19.3021C110.667 20.0303 112.093 20.3641 113.549 20.3641C117.585 20.3641 119.8 18.0581 119.8 15.1755C119.8 12.2626 117.464 10.9579 115.218 9.59246C113.064 8.31807 110.94 7.10436 110.94 4.58592ZM135.858 15.4789C135.433 17.876 134.037 19.3628 132.126 19.3628H129.698C127.726 19.3628 127.331 18.9987 127.331 17.4209V10.4421H130.942C132.975 10.4421 133.764 11.1703 133.764 12.9302C133.764 13.0515 134.128 13.0515 134.128 12.9302C134.128 11.9288 134.067 11.0793 134.067 10.1386C134.067 9.4104 134.098 8.89458 134.098 7.68087C134.098 7.58984 133.734 7.58984 133.734 7.68087C133.734 9.19801 132.975 9.8352 131.033 9.8352H127.331V3.64529C127.331 2.03713 127.726 1.67302 129.759 1.67302H131.61C133.552 1.67302 134.796 2.91707 134.947 5.0714C134.947 5.16243 135.312 5.16243 135.312 5.0714L135.221 1.30891C135.221 1.12685 135.16 1.03582 134.947 1.03582H122.78C122.659 1.03582 122.659 1.39993 122.78 1.39993C124.995 1.39993 125.359 1.76405 125.359 3.49358V17.5422C125.359 19.3021 124.995 19.6359 122.78 19.6359C122.659 19.6359 122.659 20 122.78 20H135.494C135.827 20 135.949 19.8786 135.949 19.5449C135.949 18.2705 136.07 16.6016 136.222 15.5396C136.222 15.4183 135.888 15.3879 135.858 15.4789ZM158.436 19.6359C155.887 19.6359 153.399 17.0264 148.332 9.53177C150.152 8.53047 151.427 6.74025 151.427 4.76797C151.427 2.40124 149.637 0.944795 146.299 0.944795C145.298 0.944795 143.72 1.12685 142.658 1.12685C141.323 1.12685 140.079 1.03582 139.108 1.03582C138.986 1.03582 138.986 1.39993 139.108 1.39993C141.323 1.39993 141.687 1.76405 141.687 3.49358V17.5422C141.687 19.3021 141.292 19.6359 139.077 19.6359C138.956 19.6359 138.956 20 139.077 20C140.048 20 141.323 19.9393 142.658 19.9393C144.054 19.9393 145.267 20 146.238 20C146.36 20 146.36 19.6359 146.238 19.6359C143.993 19.6359 143.659 19.3021 143.659 17.5422V10.3207C144.054 10.351 144.6 10.3814 145.025 10.3814C145.571 10.3814 146.117 10.3207 146.663 10.1993C150.577 16.2679 153.52 20 154.552 20H158.436C158.557 20 158.557 19.6359 158.436 19.6359ZM143.659 9.59246V3.55426C143.659 1.55165 144.175 1.36959 145.631 1.36959C147.755 1.36959 149.364 2.46193 149.364 5.79962C149.364 8.62149 148.241 9.68349 145.449 9.68349C144.933 9.68349 144.205 9.65314 143.659 9.59246ZM164.197 17.5422V3.55426C164.197 1.82473 164.561 1.39993 166.776 1.39993C166.897 1.39993 166.897 1.03582 166.776 1.03582C165.835 1.03582 164.621 1.12685 163.165 1.12685C161.83 1.12685 160.555 1.03582 159.585 1.03582C159.463 1.03582 159.463 1.39993 159.585 1.39993C161.8 1.39993 162.194 1.76405 162.194 3.49358V17.5422C162.194 19.3021 161.8 19.6359 159.585 19.6359C159.463 19.6359 159.463 20 159.585 20C160.555 20 161.83 19.9393 163.165 19.9393C164.621 19.9393 165.805 20 166.776 20C166.897 20 166.897 19.6359 166.776 19.6359C164.53 19.6359 164.197 19.3021 164.197 17.5422ZM182.009 1.30891C182.009 1.12685 181.948 1.03582 181.736 1.03582H169.568C169.447 1.03582 169.447 1.39993 169.568 1.39993C171.783 1.39993 172.147 1.76405 172.147 3.49358V17.5422C172.147 19.3021 171.753 19.6359 169.508 19.6359C169.416 19.6359 169.416 20 169.508 20C170.509 20 171.783 19.9393 173.118 19.9393C174.969 19.9393 176.456 20 177.791 20C177.882 20 177.882 19.6359 177.791 19.6359C174.605 19.6359 174.12 19.2414 174.12 17.4209V10.8062H177.093C179.339 10.8062 180.218 11.5344 180.218 13.2943C180.218 13.4156 180.552 13.4156 180.552 13.2943C180.552 12.2626 180.492 11.4434 180.492 10.5027C180.492 9.74417 180.522 9.25869 180.522 8.04498C180.522 7.92361 180.188 7.92361 180.188 8.04498C180.188 9.53177 179.339 10.169 177.184 10.169H174.12V3.52392C174.12 2.03713 174.575 1.67302 176.547 1.67302H178.398C180.34 1.67302 181.584 2.91707 181.736 5.0714C181.736 5.16243 182.1 5.16243 182.1 5.0714L182.009 1.30891Z" fill="black"/>
</svg>
